<?xml version="1.0" encoding="UTF-8" standalone="no"?>
<svg
   xmlns:dc="http://purl.org/dc/elements/1.1/"
   xmlns:cc="http://creativecommons.org/ns#"
   xmlns:rdf="http://www.w3.org/1999/02/22-rdf-syntax-ns#"
   xmlns:svg="http://www.w3.org/2000/svg"
   xmlns="http://www.w3.org/2000/svg"
   xmlns:sodipodi="http://sodipodi.sourceforge.net/DTD/sodipodi-0.dtd"
   xmlns:inkscape="http://www.inkscape.org/namespaces/inkscape"
   version="1.1"
   id="svg2"
   xml:space="preserve"
   width="666.66669"
   height="666.66669"
   viewBox="0 0 666.66669 666.66669"
   sodipodi:docname="adobe-portfolio-seeklogo.com.eps"><metadata
     id="metadata8"><rdf:RDF><cc:Work
         rdf:about=""><dc:format>image/svg+xml</dc:format><dc:type
           rdf:resource="http://purl.org/dc/dcmitype/StillImage" /></cc:Work></rdf:RDF></metadata><defs
     id="defs6" /><sodipodi:namedview
     pagecolor="#ffffff"
     bordercolor="#666666"
     borderopacity="1"
     objecttolerance="10"
     gridtolerance="10"
     guidetolerance="10"
     inkscape:pageopacity="0"
     inkscape:pageshadow="2"
     inkscape:window-width="640"
     inkscape:window-height="480"
     id="namedview4" /><g
     id="g10"
     inkscape:groupmode="layer"
     inkscape:label="ink_ext_XXXXXX"
     transform="matrix(1.3333333,0,0,-1.3333333,0,666.66667)"><g
       id="g12"
       transform="scale(0.1)"><path
         d="m 781.25,5000 h 3437.5 C 4650.22,5000 5000,4650.23 5000,4218.75 V 781.25 C 5000,349.781 4650.22,0 4218.75,0 H 781.25 C 349.773,0 0,349.781 0,781.25 v 3437.5 C 0,4650.23 349.773,5000 781.25,5000"
         style="fill:#14161c;fill-opacity:1;fill-rule:nonzero;stroke:none"
         id="path14" /><path
         d="m 2153.83,3119.02 -0.28,0.28 c -67.34,63.47 -165.27,97.11 -298.08,97.11 -86.92,0 -146.02,-1.29 -178.87,-3.64 v -730.19 c 32.35,-2.42 84.3,-3.91 156.72,-3.91 109.94,-4.97 218.58,25.36 310.04,86.56 75.27,56.57 115.7,150.36 115.7,288.56 6.21,99.48 -32.26,196.54 -104.92,264.76 z m 287.07,-805.78 v 0 C 2274.96,2193.16 2065.47,2134.1 1814.38,2134.1 H 1708.4 l -31.84,1.76 v -677.54 c 0.46,-13.96 -5.26,-27.42 -15.62,-36.8 -10.33,-8.38 -23.35,-12.71 -36.64,-12.18 h -335.24 c -25.38,-1.67 -47.31,17.54 -48.98,42.93 -0.13,2.01 -0.13,4.03 0,6.05 v 2044.41 c -0.48,12.34 3.5,24.43 11.21,34.07 8.62,9.74 21.09,15.2 34.1,14.92 135.42,4.22 325.52,6.33 570.31,6.33 281.88,0 494.73,-65.04 632.62,-200.59 136.87,-128.57 212.36,-309.43 207.54,-497.15 -0.23,-239.22 -84.41,-423.01 -254.96,-547.07"
         style="fill:#ffffff;fill-opacity:1;fill-rule:evenodd;stroke:none"
         id="path16" /><path
         d="m 3642.81,3323.2 c -35.88,-60.33 -52.32,-130.24 -47.11,-200.23 v -118.75 h 239.03 c 25.38,1.67 47.31,-17.55 48.98,-42.93 0.14,-2.01 0.14,-4.04 0,-6.06 v -234.37 c 0.4,-12.82 -3.93,-25.34 -12.19,-35.16 -8.6,-9.41 -20.33,-15.37 -33,-16.79 l -1.88,-0.28 H 3595.7 V 1461.21 c 1.91,-26.9 -18.37,-50.24 -45.26,-52.15 -2.3,-0.16 -4.59,-0.16 -6.89,0 h -335.42 c -26.91,-1.9 -50.25,18.37 -52.15,45.27 -0.17,2.29 -0.17,4.59 0,6.88 v 1207.7 h -156.72 c -13.96,-0.38 -27.24,5.97 -35.71,17.07 -7.09,10.3 -10.65,22.65 -10.11,35.15 v 234.38 c -0.48,12.33 3.5,24.42 11.21,34.06 8.75,9.87 21.42,15.34 34.61,14.92 h 156.72 v 87.11 c -4.69,127.4 21.27,254.06 75.7,369.34 41.89,89.87 109.27,165.46 193.75,217.38 88.97,50.38 190.02,75.48 292.23,72.62 66.9,3.1 133.75,-7.22 196.6,-30.35 11.42,-3.99 21.1,-11.86 27.34,-22.23 5.94,-10.46 8.9,-22.35 8.56,-34.38 v -256.36 c 1.01,-14.66 -4.42,-29.03 -14.89,-39.34 -12.7,-9.95 -30.01,-11.65 -44.41,-4.37 -36.02,14.02 -74.44,20.84 -113.09,20.07 -52.4,4.05 -103.26,-18.85 -134.96,-60.78"
         style="fill:#ffffff;fill-opacity:1;fill-rule:nonzero;stroke:none"
         id="path18" /></g></g></svg>
