<?xml version="1.0" encoding="utf-8"?>
<!-- Generator: Adobe Illustrator 25.4.1, SVG Export Plug-In . SVG Version: 6.00 Build 0)  -->
<svg version="1.1" id="Layer_1" xmlns="http://www.w3.org/2000/svg" xmlns:xlink="http://www.w3.org/1999/xlink" x="0px" y="0px"
	 viewBox="0 0 100 100" style="enable-background:new 0 0 100 100;" xml:space="preserve">
<style type="text/css">
	.st0{fill:#363436;}
</style>
<g>
	<path class="st0" d="M37.2,80.6c1.2,2.5,2.7,4.9,4.3,7.2c0.2-2.5,0.2-5,0.1-7.4C40.1,80.5,38.7,80.6,37.2,80.6z"/>
	<path class="st0" d="M49.4,16.3c-6.2-2.3-12.8-2.5-19.1-0.6c0.8,1.5,1.1,3.3,0.9,5.1c-0.2,1.8-1,3.5-2.2,4.7
		c1.7,0.9,3.1,2.4,3.7,4.4l4.1,14.8c0.5,0.2,1,0.4,1.4,0.6c8,3.8,12,11.9,9.1,18.2c-1.5,3.1-4.4,5.3-8.3,6c-1,0.2-2.1,0.3-3.2,0.3
		c-2.8,0-5.6-0.7-8.3-1.9c-3.8-1.8-6.8-4.6-8.5-7.9c-1.8-3.5-2-7.1-0.5-10.2c0.9-1.8,2.2-3.3,4.1-4.4l-3.3-11.7
		c-0.6-2-0.2-4,0.9-5.7c-1.6-0.5-3.1-1.4-4.2-2.8c-2.2,2.6-3.9,5.6-5.1,8.9c-6.3,16.6,2.2,34.9,18.6,41c1.5,0.6,3.1,1,4.8,1.2
		c2.9,0.4,5.8,0.3,8.7-0.3c2-0.4,3.9-1.1,5.6-2c1.5-0.7,3-1.1,4.6-1.1c1.8,0,3.6,0.5,5.3,1.5c3,1.8,4.7,5,4.7,8.5
		c0,2.7,1.7,5.2,4.1,6.1c2.5,1,5.1,0.9,7.5-0.2s4.2-3,5.1-5.5l0.1-0.4C90,56.1,76.2,26.2,49.4,16.3z M47,34.6
		c-3.5,0-6.2-2.8-6.2-6.2s2.8-6.2,6.2-6.2c3.5,0,6.2,2.8,6.2,6.2S50.5,34.6,47,34.6z M55.8,41.4c0-3.4,2.7-6.2,6.2-6.2
		s6.2,2.7,6.2,6.2s-2.7,6.2-6.2,6.2C58.5,47.5,55.8,44.7,55.8,41.4z M68.6,64.8c-3.2,0-5.8-2.6-5.8-5.8s2.6-5.8,5.8-5.8
		c3.2,0,5.8,2.6,5.8,5.8S71.9,64.8,68.6,64.8z"/>
	<path class="st0" d="M29.8,56.7l2.4,8.8c2.1,0.5,4.1,0.6,6,0.2c0.1,0,0.2,0,0.3-0.1l-2.8-10.2L29.8,56.7z"/>
	<path class="st0" d="M43.7,61.8C45.5,58,43.1,53,38.3,50l3.9,13.8C42.8,63.3,43.3,62.6,43.7,61.8z"/>
	<path class="st0" d="M22,51.5c-0.9,2-0.8,4.3,0.5,6.7c1.1,2,2.8,3.8,5,5.2l-3.9-13.9C22.9,50.1,22.4,50.8,22,51.5z"/>
	<path class="st0" d="M23.8,24.3c1.9-0.5,3.2-2,3.4-3.9c0.2-1.5-0.3-2.9-1.3-3.9l-6-6.1l-2,8.3c-0.3,1.4,0,2.9,0.9,4.1
		C20.1,24.2,21.9,24.8,23.8,24.3z"/>
	<path class="st0" d="M25.1,29c-1.6,0.5-2.5,2.1-2.1,3.7l3.7,13.2l0.1,0.5l1.8,6.4l5.9-1.3l-1.3-4.6l0,0L33,46.4L28.8,31
		C28.4,29.4,26.7,28.5,25.1,29z"/>
</g>
</svg>
