<?xml version="1.0" encoding="utf-8"?>
<!-- Generator: Adobe Illustrator 21.0.2, SVG Export Plug-In . SVG Version: 6.00 Build 0)  -->
<svg version="1.1" id="Layer_1" xmlns="http://www.w3.org/2000/svg" xmlns:xlink="http://www.w3.org/1999/xlink" x="0px" y="0px"
	 viewBox="0 0 100 100" style="enable-background:new 0 0 100 100;" xml:space="preserve">
<g>
	<path d="M41.2,80.6c1.2,2.5,2.7,4.9,4.3,7.2c0.2-2.5,0.2-5,0.1-7.4C44.1,80.5,42.7,80.6,41.2,80.6z"/>
	<path d="M53.4,16.3c-6.2-2.3-12.8-2.5-19.1-0.6c0.8,1.5,1.1,3.3,0.9,5.1c-0.2,1.8-1,3.5-2.2,4.7c1.7,0.9,3.1,2.4,3.7,4.4l4.1,14.8
		c0.5,0.2,1,0.4,1.4,0.6c8,3.8,12,11.9,9.1,18.2c-1.5,3.1-4.4,5.3-8.3,6c-1,0.2-2.1,0.3-3.2,0.3c-2.8,0-5.6-0.7-8.3-1.9
		c-3.8-1.8-6.8-4.6-8.5-7.9c-1.8-3.5-2-7.1-0.5-10.2c0.9-1.8,2.2-3.3,4.1-4.4l-3.3-11.7c-0.6-2-0.2-4,0.9-5.7
		c-1.6-0.5-3.1-1.4-4.2-2.8c-2.2,2.6-3.9,5.6-5.1,8.9C8.6,50.7,17.1,69,33.5,75.1c1.5,0.6,3.1,1,4.8,1.2c2.9,0.4,5.8,0.3,8.7-0.3
		c2-0.4,3.9-1.1,5.6-2c1.5-0.7,3-1.1,4.6-1.1c1.8,0,3.6,0.5,5.3,1.5c3,1.8,4.7,5,4.7,8.5c0,2.7,1.7,5.2,4.1,6.1
		c2.5,1,5.1,0.9,7.5-0.2c2.4-1.1,4.2-3,5.1-5.5l0.1-0.4C94,56.1,80.2,26.2,53.4,16.3z M51.8,36.2c-3.9,0-7-3.1-7-7s3.1-7,7-7
		s7,3.1,7,7S55.7,36.2,51.8,36.2z M59.8,42.2c0-3.9,3.1-7,7-7s7,3.1,7,7s-3.1,7-7,7S59.8,46,59.8,42.2z M73.8,67.2c-3.9,0-7-3.1-7-7
		s3.1-7,7-7s7,3.1,7,7S77.7,67.2,73.8,67.2z"/>
	<circle cx="51.8" cy="29.2" r="3"/>
	<circle cx="66.8" cy="42.2" r="3"/>
	<circle cx="73.8" cy="60.2" r="3"/>
	<path d="M33.8,56.7l2.4,8.8c2.1,0.5,4.1,0.6,6,0.2c0.1,0,0.2,0,0.3-0.1l-2.8-10.2L33.8,56.7z"/>
	<path d="M47.7,61.8C49.5,58,47.1,53,42.3,50l3.9,13.8C46.8,63.3,47.3,62.6,47.7,61.8z"/>
	<path d="M26,51.5c-0.9,2-0.8,4.3,0.5,6.7c1.1,2,2.8,3.8,5,5.2l-3.9-13.9C26.9,50.1,26.4,50.8,26,51.5z"/>
	<path d="M27.8,24.3c1.9-0.5,3.2-2,3.4-3.9c0.2-1.5-0.3-2.9-1.3-3.9l-6-6.1l-2,8.3c-0.3,1.4,0,2.9,0.9,4.1
		C24.1,24.2,25.9,24.8,27.8,24.3z"/>
	<path d="M29.1,29c-1.6,0.5-2.5,2.1-2.1,3.7l3.7,13.2l0.1,0.5l1.8,6.4l5.9-1.3l-1.3-4.6c0,0,0,0,0,0l-0.2-0.5L32.8,31
		C32.4,29.4,30.7,28.5,29.1,29z"/>
</g>
</svg>
