<?xml version="1.0" encoding="utf-8"?>
<!-- Generator: Adobe Illustrator 25.4.1, SVG Export Plug-In . SVG Version: 6.00 Build 0)  -->
<svg version="1.1" id="Layer_1" xmlns="http://www.w3.org/2000/svg" xmlns:xlink="http://www.w3.org/1999/xlink" x="0px" y="0px"
	 viewBox="0 0 100 100" style="enable-background:new 0 0 100 100;" xml:space="preserve">
<style type="text/css">
	.st0{fill:#363436;}
</style>
<g>
	<path class="st0" d="M82.1,27.1h-3.6v47.1c0,1-0.8,1.8-1.8,1.8H48.6v5.4h33.5c1,0,1.8-0.8,1.8-1.8V28.9C84,28,83.1,27.1,82.1,27.1z
		"/>
	<path class="st0" d="M15.1,74.2V27.1h-3.6c-1,0-1.8,0.8-1.8,1.8v50.7c0,1,0.8,1.8,1.8,1.8H45V76H17C16,76,15.1,75.2,15.1,74.2z"/>
	<path class="st0" d="M18.8,68.5v3.9h21.7C33.9,69,26.2,67.6,18.8,68.5z"/>
	<path class="st0" d="M74.9,72.4v-3.9c-7.4-0.9-15.1,0.5-21.7,3.9H74.9z"/>
	<path class="st0" d="M40.5,37.1c0,0.7-0.5,1.4-1.1,1.6c-0.3,0.1-0.5,0.2-0.7,0.2c-0.5,0-0.8-0.2-1.2-0.5l-5.3-4.6l-5.3,3
		c-0.5,0.3-1.3,0.3-1.8,0c-0.5-0.4-0.9-0.9-0.9-1.5V19.4c-1.8,0-3.6,0-5.4,0.3v45.3c1.5-0.2,3-0.3,4.5-0.3c7.6,0,15.2,2.2,21.7,6.2
		V26.2c-1.4-1-3-1.9-4.5-2.7V37.1z"/>
	<path class="st0" d="M74.9,64.9V19.6c-9.2-1.2-18.7,1.3-26.3,6.6v44.5C56.4,66,65.8,63.9,74.9,64.9z"/>
	<path class="st0" d="M33.5,30.3l3.3,2.9V20.8c0-0.1,0-0.3,0-0.4l-9.1-1.9v13.7l3.6-2.1C32.1,29.7,33,29.8,33.5,30.3z"/>
</g>
</svg>
