<?xml version="1.0" encoding="utf-8"?>
<!-- Generator: Adobe Illustrator 21.0.2, SVG Export Plug-In . SVG Version: 6.00 Build 0)  -->
<svg version="1.1" id="Layer_1" xmlns="http://www.w3.org/2000/svg" xmlns:xlink="http://www.w3.org/1999/xlink" x="0px" y="0px"
	 viewBox="0 0 100 100" style="enable-background:new 0 0 100 100;" xml:space="preserve">
<g>
	<path d="M87,28h-4v-2c0-1.1-0.9-2-2-2h-4c-1.1,0-2,0.9-2,2v2H65v-6c0-4.4-3.6-8-8-8H43c-4.4,0-8,3.6-8,8v6H25v-2c0-1.1-0.9-2-2-2
		h-4c-1.1,0-2,0.9-2,2v2h-4c-3.3,0-6,2.7-6,6v46c0,3.3,2.7,6,6,6h74c3.3,0,6-2.7,6-6V34C93,30.7,90.3,28,87,28z M39,22
		c0-2.2,1.8-4,4-4h14c2.2,0,4,1.8,4,4v6H39V22z M69,60c0,3.3-2.7,6-6,6h-4v4c0,3.3-2.7,6-6,6h-6c-3.3,0-6-2.7-6-6v-4h-4
		c-3.3,0-6-2.7-6-6v-6c0-3.3,2.7-6,6-6h4v-4c0-3.3,2.7-6,6-6h6c3.3,0,6,2.7,6,6v4h4c3.3,0,6,2.7,6,6V60z"/>
	<path d="M63,52h-6c-1.1,0-2-0.9-2-2v-6c0-1.1-0.9-2-2-2h-6c-1.1,0-2,0.9-2,2v6c0,1.1-0.9,2-2,2h-6c-1.1,0-2,0.9-2,2v6
		c0,1.1,0.9,2,2,2h6c1.1,0,2,0.9,2,2v6c0,1.1,0.9,2,2,2h6c1.1,0,2-0.9,2-2v-6c0-1.1,0.9-2,2-2h6c1.1,0,2-0.9,2-2v-6
		C65,52.9,64.1,52,63,52z"/>
</g>
</svg>
