<?xml version="1.0" encoding="utf-8"?>
<!-- Generator: Adobe Illustrator 25.4.1, SVG Export Plug-In . SVG Version: 6.00 Build 0)  -->
<svg version="1.1" id="Layer_1" xmlns="http://www.w3.org/2000/svg" xmlns:xlink="http://www.w3.org/1999/xlink" x="0px" y="0px"
	 viewBox="0 0 100 100" style="enable-background:new 0 0 100 100;" xml:space="preserve">
<style type="text/css">
	.st0{fill:#363436;}
</style>
<g>
	<path class="st0" d="M81.4,27h-3.7v-1.9c0-1-0.8-1.9-1.9-1.9h-3.7c-1,0-1.9,0.8-1.9,1.9V27H61v-5.6c0-4.1-3.3-7.4-7.4-7.4h-13
		c-4.1,0-7.4,3.3-7.4,7.4V27h-9.3v-1.9c0-1-0.8-1.9-1.9-1.9h-3.7c-1,0-1.9,0.8-1.9,1.9V27h-3.7C9.5,27,7,29.5,7,32.6v42.8
		c0,3.1,2.5,5.6,5.6,5.6h68.8c3.1,0,5.6-2.5,5.6-5.6V32.6C87,29.5,84.5,27,81.4,27z M36.8,21.4c0-2,1.7-3.7,3.7-3.7h13
		c2,0,3.7,1.7,3.7,3.7V27H36.8V21.4z M64.7,56.8c0,3.1-2.5,5.6-5.6,5.6h-3.7v3.7c0,3.1-2.5,5.6-5.6,5.6h-5.6c-3.1,0-5.6-2.5-5.6-5.6
		v-3.7h-3.7c-3.1,0-5.6-2.5-5.6-5.6v-5.6c0-3.1,2.5-5.6,5.6-5.6h3.7v-3.7c0-3.1,2.5-5.6,5.6-5.6h5.6c3.1,0,5.6,2.5,5.6,5.6v3.7h3.7
		c3.1,0,5.6,2.5,5.6,5.6V56.8z"/>
	<path class="st0" d="M59.1,49.3h-5.6c-1,0-1.9-0.8-1.9-1.9v-5.6c0-1-0.8-1.9-1.9-1.9h-5.6c-1,0-1.9,0.8-1.9,1.9v5.6
		c0,1-0.8,1.9-1.9,1.9h-5.6c-1,0-1.9,0.8-1.9,1.9v5.6c0,1,0.8,1.9,1.9,1.9h5.6c1,0,1.9,0.8,1.9,1.9v5.6c0,1,0.8,1.9,1.9,1.9h5.6
		c1,0,1.9-0.8,1.9-1.9v-5.6c0-1,0.8-1.9,1.9-1.9h5.6c1,0,1.9-0.8,1.9-1.9v-5.6C61,50.2,60.1,49.3,59.1,49.3z"/>
</g>
</svg>
