<?xml version="1.0" encoding="utf-8"?>
<!-- Generator: Adobe Illustrator 25.4.1, SVG Export Plug-In . SVG Version: 6.00 Build 0)  -->
<svg version="1.1" id="Layer_1" xmlns="http://www.w3.org/2000/svg" xmlns:xlink="http://www.w3.org/1999/xlink" x="0px" y="0px"
	 viewBox="0 0 100 100" style="enable-background:new 0 0 100 100;" xml:space="preserve">
<style type="text/css">
	.st0{fill:#363436;}
</style>
<g>
	<path class="st0" d="M88.8,43.6C84.7,38,79.1,33.7,72.9,31c-5.8,5-9.1,12.2-9.1,19.9s3.3,14.9,9.1,19.9c6.2-2.7,11.8-7,15.9-12.6
		c1.6-2.2,2.4-4.8,2.4-7.3C91.2,48.4,90.4,45.8,88.8,43.6z M75.2,51c-2.2,0-4-1.8-4-4s1.8-4,4-4s4,1.8,4,4
		C79.2,49.2,77.4,51,75.2,51z"/>
	<path class="st0" d="M59,59.5c-6.3-1.1-12.2-3.8-17.1-8c-0.4-0.4-0.7-0.9-0.7-1.5s0.2-1.1,0.7-1.5c4.9-4.2,10.8-6.9,17.1-8l2.8-0.5
		c1.5-3.9,3.8-7.5,6.8-10.5c-0.5-0.1-1-0.3-1.5-0.4C63.7,23,57,19.5,50,20.3l-11.3,1.2c2.1,3.1,2.7,7,1.7,10.7
		c-3.4,1.7-6.5,3.9-9.3,6.6l-4.9,4.6c-2-3.7-5-6.8-8.7-9S9.7,31,5.2,31c0,8.3,4.3,15.7,10.7,20C9.5,55.3,5.2,62.6,5.2,71
		c4.5,0,8.7-1.2,12.3-3.4c3.6-2.2,6.6-5.3,8.7-9l4.8,4.6C38.2,70.1,47.8,74,57.7,74c3.7,0,7.4-0.5,10.9-1.6
		c-3.5-3.5-6.1-7.9-7.5-12.6L59,59.5z"/>
	<path class="st0" d="M59.6,44.4c-4.8,0.8-9.3,2.7-13.2,5.5c3.9,2.8,8.4,4.8,13.2,5.5l0.5,0.1c-0.2-1.5-0.4-3.1-0.4-4.6
		c0-2.3,0.3-4.5,0.8-6.7L59.6,44.4z"/>
</g>
</svg>
