<?xml version="1.0" encoding="utf-8"?>
<!-- Generator: Adobe Illustrator 21.0.2, SVG Export Plug-In . SVG Version: 6.00 Build 0)  -->
<svg version="1.1" id="Layer_1" xmlns="http://www.w3.org/2000/svg" xmlns:xlink="http://www.w3.org/1999/xlink" x="0px" y="0px"
	 viewBox="0 0 100 100" style="enable-background:new 0 0 100 100;" xml:space="preserve">
<g>
	<path d="M90.6,46.5c-4.1-5.6-9.7-9.9-15.9-12.6c-5.8,5-9.1,12.2-9.1,19.9c0,7.7,3.3,14.9,9.1,19.9c6.2-2.7,11.8-7,15.9-12.6
		c1.6-2.2,2.4-4.8,2.4-7.3C93,51.3,92.2,48.7,90.6,46.5z M77,53.9c-2.2,0-4-1.8-4-4c0-2.2,1.8-4,4-4c2.2,0,4,1.8,4,4
		C81,52.1,79.2,53.9,77,53.9z"/>
	<path d="M60.8,62.4c-6.3-1.1-12.2-3.8-17.1-8C43.3,54,43,53.5,43,52.9c0-0.6,0.2-1.1,0.7-1.5c4.9-4.2,10.8-6.9,17.1-8l2.8-0.5
		c1.5-3.9,3.8-7.5,6.8-10.5c-0.5-0.1-1-0.3-1.5-0.4c-3.4-6.1-10.1-9.6-17.1-8.8l-11.3,1.2c2.1,3.1,2.7,7,1.7,10.7
		c-3.4,1.7-6.5,3.9-9.3,6.6L28,46.3c-2-3.7-5-6.8-8.7-9S11.5,33.9,7,33.9c0,8.3,4.3,15.7,10.7,20C11.3,58.2,7,65.5,7,73.9
		c4.5,0,8.7-1.2,12.3-3.4c3.6-2.2,6.6-5.3,8.7-9l4.8,4.6C40,73,49.6,76.9,59.5,76.9c3.7,0,7.4-0.5,10.9-1.6
		c-3.5-3.5-6.1-7.9-7.5-12.6L60.8,62.4z"/>
	<path d="M61.4,47.3c-4.8,0.8-9.3,2.7-13.2,5.5c3.9,2.8,8.4,4.8,13.2,5.5l0.5,0.1c-0.2-1.5-0.4-3.1-0.4-4.6c0-2.3,0.3-4.5,0.8-6.7
		L61.4,47.3z"/>
</g>
</svg>
