<?xml version="1.0" encoding="utf-8"?>
<!-- Generator: Adobe Illustrator 25.4.1, SVG Export Plug-In . SVG Version: 6.00 Build 0)  -->
<svg version="1.1" id="Layer_1" xmlns="http://www.w3.org/2000/svg" xmlns:xlink="http://www.w3.org/1999/xlink" x="0px" y="0px"
	 viewBox="0 0 100 100" style="enable-background:new 0 0 100 100;" xml:space="preserve">
<style type="text/css">
	.st0{fill:#363436;}
</style>
<g>
	<path class="st0" d="M33.1,30.8h6.8v5.7h6.8c1.2,0,2.3,1,2.3,2.3S48,41,46.7,41h-6.8v6.8h4.5c1.2,0,2.3,1,2.3,2.3
		c0,1.2-1,2.3-2.3,2.3h-4.5c-0.1,2.3-0.9,4.3-2,6.2l-6.1,9.6h32.2l-6.1-9.6c-1.4-2.2-2-4.6-2-7.3V30.8h6.8c1.2,0,2.3-1,2.3-2.3
		c0-1.2-1-2.3-2.3-2.3H60H35.7h-2.6c-1.2,0-2.3,1-2.3,2.3C30.8,29.8,31.9,30.8,33.1,30.8z"/>
	<path class="st0" d="M74.6,85l-7.8-12.2H28.9L21.2,85c-1.4,2.2-1.4,4.8-0.2,6.9c1.2,2.2,3.4,3.5,5.9,3.5h41.9
		c2.5,0,4.8-1.4,5.9-3.5C76,89.8,75.8,87.1,74.6,85z"/>
	<circle class="st0" cx="56.9" cy="5.9" r="3.4"/>
	<circle class="st0" cx="37.6" cy="7" r="2.3"/>
	<circle class="st0" cx="44.4" cy="16.1" r="2.3"/>
</g>
</svg>
