<?xml version="1.0" encoding="utf-8"?>
<!-- Generator: Adobe Illustrator 21.0.2, SVG Export Plug-In . SVG Version: 6.00 Build 0)  -->
<svg version="1.1" id="Layer_1" xmlns="http://www.w3.org/2000/svg" xmlns:xlink="http://www.w3.org/1999/xlink" x="0px" y="0px"
	 viewBox="0 0 100 100" style="enable-background:new 0 0 100 100;" xml:space="preserve">
<g>
	<path d="M37,34h6v5h6c1.1,0,2,0.9,2,2c0,1.1-0.9,2-2,2h-6v6h4c1.1,0,2,0.9,2,2c0,1.1-0.9,2-2,2h-4c-0.1,2-0.8,3.8-1.8,5.5L35.8,67
		h28.4l-5.4-8.5c-1.2-1.9-1.8-4.1-1.8-6.4V34h6c1.1,0,2-0.9,2-2c0-1.1-0.9-2-2-2h-2.3H39.3H37c-1.1,0-2,0.9-2,2
		C35,33.1,35.9,34,37,34z"/>
	<path d="M73.6,81.8L66.7,71H33.3l-6.8,10.8c-1.2,1.9-1.2,4.2-0.2,6.1c1.1,1.9,3,3.1,5.2,3.1h37c2.2,0,4.2-1.2,5.2-3.1
		C74.8,86,74.7,83.7,73.6,81.8z"/>
	<circle cx="58" cy="12" r="3"/>
	<circle cx="41" cy="13" r="2"/>
	<circle cx="47" cy="21" r="2"/>
</g>
</svg>
