<?xml version="1.0" encoding="utf-8"?>
<!-- Generator: Adobe Illustrator 21.0.2, SVG Export Plug-In . SVG Version: 6.00 Build 0)  -->
<svg version="1.1" id="Layer_1" xmlns="http://www.w3.org/2000/svg" xmlns:xlink="http://www.w3.org/1999/xlink" x="0px" y="0px"
	 viewBox="0 0 100 100" style="enable-background:new 0 0 100 100;" xml:space="preserve">
<g>
	<path d="M90,48.5h-4c-1.8,0-3.6,0.3-5.3,0.8l-9.5,2.9c-0.6,0.2-1.2,0.3-1.8,0.3H57c-3.7,0-6.9,2.5-7.8,6H64c1.1,0,2,0.9,2,2
		c0,1.1-0.9,2-2,2H47c-0.2,0-0.5,0-0.7-0.1h0c-0.2-0.1-0.4-0.2-0.5-0.3l-12-9.2c-3-2.3-7-2.2-9.8,0.1l24.2,19.7
		c1.4,1.2,3.2,1.8,5.1,1.8H69c1.1,0,2.1-0.2,3.1-0.6l9.4-3.9c0.7-0.3,1.5-0.5,2.3-0.5H90c1.1,0,2-0.9,2-2v-17
		C92,49.4,91.1,48.5,90,48.5z"/>
	<path d="M36,41.5c2.6,0,4.8-1.7,5.7-4H32c-1.1,0-2-0.9-2-2c0-1.1,0.9-2,2-2h12c0.2,0,0.4,0,0.6,0.1c0.2,0.1,0.4,0.2,0.5,0.3
		l9.5,6.3c2.5,1.7,5.8,1.6,8.2,0l-20-13.3c-1.3-0.9-2.8-1.3-4.4-1.3H25c-1.6,0-3.1,0.5-4.4,1.3l-2.5,1.7c-1,0.7-2.1,1-3.3,1H10
		c-1.1,0-2,0.9-2,2v12c0,1.1,0.9,2,2,2H15c0.3,0,0.7-0.1,1-0.3l5.2-3c0.9-0.5,1.9-0.8,3-0.8H36z"/>
</g>
</svg>
