<?xml version="1.0" encoding="utf-8"?>
<!-- Generator: Adobe Illustrator 25.4.1, SVG Export Plug-In . SVG Version: 6.00 Build 0)  -->
<svg version="1.1" id="Layer_1" xmlns="http://www.w3.org/2000/svg" xmlns:xlink="http://www.w3.org/1999/xlink" x="0px" y="0px"
	 viewBox="0 0 100 100" style="enable-background:new 0 0 100 100;" xml:space="preserve">
<style type="text/css">
	.st0{fill:#363436;}
</style>
<g>
	<path class="st0" d="M89.9,50h-4.3c-1.9,0-3.8,0.3-5.7,0.9L69.8,54c-0.6,0.2-1.3,0.3-1.9,0.3H54.6c-3.9,0-7.4,2.7-8.3,6.4h15.8
		c1.2,0,2.1,1,2.1,2.1s-1,2.1-2.1,2.1H44c-0.2,0-0.5,0-0.7-0.1l0,0c-0.2-0.1-0.4-0.2-0.5-0.3l-12.8-9.8c-3.2-2.5-7.5-2.3-10.5,0.1
		l25.8,21c1.5,1.3,3.4,1.9,5.4,1.9h16.8c1.2,0,2.2-0.2,3.3-0.6l10-4.2c0.7-0.3,1.6-0.5,2.5-0.5h6.6c1.2,0,2.1-1,2.1-2.1V52.2
		C92,51,91,50,89.9,50z"/>
	<path class="st0" d="M32.2,42.6c2.8,0,5.1-1.8,6.1-4.3H28c-1.2,0-2.1-1-2.1-2.1s1-2.1,2.1-2.1h12.8c0.2,0,0.4,0,0.6,0.1
		c0.2,0.1,0.4,0.2,0.5,0.3l10.1,6.7c2.7,1.8,6.2,1.7,8.8,0L39.5,27c-1.4-1-3-1.4-4.7-1.4H20.5c-1.7,0-3.3,0.5-4.7,1.4l-2.7,1.8
		c-1.1,0.7-2.2,1.1-3.5,1.1H4.5c-1.2,0-2.1,1-2.1,2.1v12.8c0,1.2,1,2.1,2.1,2.1h5.3c0.3,0,0.7-0.1,1.1-0.3l5.5-3.2
		c1-0.5,2-0.9,3.2-0.9H32.2z"/>
</g>
</svg>
