<?xml version="1.0" encoding="UTF-8"?>
<svg id="Layer_1" xmlns="http://www.w3.org/2000/svg" version="1.1" viewBox="0 0 640 640">
  <!-- Generator: Adobe Illustrator 29.8.2, SVG Export Plug-In . SVG Version: 2.1.1 Build 3)  -->
  <defs>
    <style>
      .st0 {
        fill: #363436;
      }
    </style>
  </defs>
  <path class="st0" d="M179.11,152.18c0-29.05,24.03-52.66,53.6-52.66h160.79c29.56,0,53.6,23.62,53.6,52.66v52.66h53.6c29.56,0,53.6,23.62,53.6,52.66v210.66c0,29.05-24.03,52.66-53.6,52.66H125.51c-29.56,0-53.6-23.62-53.6-52.66v-210.66c0-29.05,24.03-52.66,53.6-52.66h53.6v-52.66ZM299.7,389.17c-14.82,0-26.8,11.77-26.8,26.33v65.83h80.4v-65.83c0-14.56-11.98-26.33-26.8-26.33h-26.8ZM179.11,402.34v-26.33c0-7.24-6.03-13.17-13.4-13.17h-26.8c-7.37,0-13.4,5.92-13.4,13.17v26.33c0,7.24,6.03,13.17,13.4,13.17h26.8c7.37,0,13.4-5.92,13.4-13.17ZM165.71,310.18c7.37,0,13.4-5.92,13.4-13.17v-26.33c0-7.24-6.03-13.17-13.4-13.17h-26.8c-7.37,0-13.4,5.92-13.4,13.17v26.33c0,7.24,6.03,13.17,13.4,13.17h26.8ZM500.69,402.34v-26.33c0-7.24-6.03-13.17-13.4-13.17h-26.8c-7.37,0-13.4,5.92-13.4,13.17v26.33c0,7.24,6.03,13.17,13.4,13.17h26.8c7.37,0,13.4-5.92,13.4-13.17ZM487.29,310.18c7.37,0,13.4-5.92,13.4-13.17v-26.33c0-7.24-6.03-13.17-13.4-13.17h-26.8c-7.37,0-13.4,5.92-13.4,13.17v26.33c0,7.24,6.03,13.17,13.4,13.17h26.8ZM293,185.1v26.33h-26.8c-7.37,0-13.4,5.92-13.4,13.17v13.17c0,7.24,6.03,13.17,13.4,13.17h26.8v26.33c0,7.24,6.03,13.17,13.4,13.17h13.4c7.37,0,13.4-5.92,13.4-13.17v-26.33h26.8c7.37,0,13.4-5.92,13.4-13.17v-13.17c0-7.24-6.03-13.17-13.4-13.17h-26.8v-26.33c0-7.24-6.03-13.17-13.4-13.17h-13.4c-7.37,0-13.4,5.92-13.4,13.17Z"/>
</svg>