<?xml version="1.0" standalone="no"?>
<!DOCTYPE svg PUBLIC "-//W3C//DTD SVG 20010904//EN"
 "http://www.w3.org/TR/2001/REC-SVG-20010904/DTD/svg10.dtd">
<svg version="1.0" xmlns="http://www.w3.org/2000/svg"
 width="300.000000pt" height="202.000000pt" viewBox="0 0 300.000000 202.000000"
 preserveAspectRatio="xMidYMid meet">
<metadata>
Created by potrace 1.10, written by Peter Selinger 2001-2011
</metadata>
<g transform="translate(0.000000,202.000000) scale(0.050000,-0.050000)"
fill="#000000" stroke="none">
<path d="M4262 3967 c-106 -52 -208 -174 -234 -280 -9 -33 -32 -45 -107 -55
-1229 -163 -2393 -1344 -2768 -2808 -83 -324 -71 -313 -165 -151 -189 324
-375 451 -677 462 -332 12 -345 -24 -161 -456 191 -451 287 -563 538 -628 103
-26 1453 -42 2757 -31 64 0 105 91 67 150 l-33 50 -489 0 c-518 0 -561 9 -373
77 445 163 707 536 675 961 -8 95 -18 235 -24 312 -11 145 37 376 123 594 67
171 -17 205 -385 155 -533 -73 -970 -298 -1236 -637 -117 -149 -132 -145 -52
13 360 713 1071 1358 1768 1603 401 140 519 150 572 47 170 -330 614 -360 819
-55 56 83 76 99 119 94 97 -12 433 -128 611 -210 l176 -81 -13 -91 c-54 -356
-553 -825 -1327 -1246 -82 -45 -71 -214 69 -1046 105 -621 90 -601 478 -660
352 -53 471 -16 382 120 -37 56 -45 58 -324 90 -111 13 -211 30 -223 37 -31
19 -225 1127 -225 1281 0 10 79 66 175 123 822 491 1307 1079 1205 1460 -22
80 -30 86 -226 180 -217 103 -570 229 -705 250 -75 12 -84 20 -114 106 -102
286 -401 406 -673 270z m369 -196 c136 -89 108 -111 -140 -111 -248 0 -266 9
-179 90 81 75 222 85 319 21z m-4 -328 l97 -13 -43 -55 c-108 -136 -441 -80
-441 74 0 15 267 11 387 -6z m-1487 -1333 c0 -5 -20 -79 -44 -165 -34 -123
-42 -197 -38 -355 17 -559 15 -593 -41 -700 -169 -322 -664 -532 -1492 -632
-219 -26 -242 -21 -213 42 13 28 957 1009 1180 1226 29 28 -126 -44 -255 -119
-285 -165 -436 -317 -697 -698 -139 -204 -148 -195 -48 47 300 727 621 1088
1111 1252 194 65 537 130 537 102z m-2663 -1214 c97 -30 198 -126 306 -295
120 -186 114 -191 -78 -61 l-155 106 200 -203 199 -203 -79 0 c-236 0 -337 90
-486 429 -133 301 -134 296 93 227z"/>
</g>
</svg>
