<?xml version="1.0" standalone="no"?>
<!DOCTYPE svg PUBLIC "-//W3C//DTD SVG 20010904//EN"
 "http://www.w3.org/TR/2001/REC-SVG-20010904/DTD/svg10.dtd">
<svg version="1.0" xmlns="http://www.w3.org/2000/svg"
 width="300.000000pt" height="166.000000pt" viewBox="0 0 300.000000 166.000000"
 preserveAspectRatio="xMidYMid meet">
<metadata>
Created by potrace 1.10, written by Peter Selinger 2001-2011
</metadata>
<g transform="translate(0.000000,166.000000) scale(0.050000,-0.050000)"
fill="#000000" stroke="none">
<path d="M84 3286 c3 -19 29 -40 56 -46 57 -14 56 23 19 -560 -25 -395 -24
-392 -101 -407 -113 -23 -37 -53 135 -53 167 0 238 40 100 56 -90 11 -96 49
-70 463 13 210 29 376 35 370 6 -6 75 -197 153 -424 78 -227 151 -416 163
-420 11 -3 96 194 188 438 l168 445 6 -389 c6 -453 3 -474 -70 -483 -152 -18
-61 -56 134 -56 200 0 268 30 139 60 l-49 12 -5 474 c-5 454 -4 474 32 474 42
0 90 46 69 67 -15 16 -191 17 -231 2 -15 -6 -95 -186 -176 -400 -82 -213 -154
-389 -161 -389 -7 0 -73 173 -148 385 -75 212 -146 392 -158 400 -49 33 -235
17 -228 -19z"/>
<path d="M1889 3298 c-16 -26 25 -57 76 -58 43 0 44 -61 14 -539 -26 -416 -26
-417 -93 -425 -139 -16 -65 -56 104 -56 164 0 241 38 115 56 -88 13 -92 39
-66 449 14 212 27 388 30 391 3 3 58 -146 122 -330 169 -492 177 -512 200
-520 11 -3 87 171 168 389 214 571 199 565 200 82 1 -430 -2 -444 -87 -460
-129 -24 -42 -57 148 -57 200 0 268 30 139 60 l-49 12 -5 472 -6 473 46 7 c78
11 54 65 -33 72 -155 13 -155 13 -292 -341 -190 -487 -181 -468 -202 -431 -10
18 -73 188 -139 378 -66 190 -130 357 -142 372 -27 32 -229 35 -248 4z"/>
<path d="M4444 3155 c-26 -41 -69 -92 -95 -113 -59 -46 -63 -82 -10 -82 36 0
39 -19 45 -338 7 -388 20 -422 156 -422 81 0 180 62 180 113 0 25 -9 24 -58
-5 -129 -76 -162 0 -162 373 l0 279 100 0 c138 0 143 55 5 64 l-95 6 -10 100
-10 100 -46 -75z"/>
<path d="M1460 3015 c-426 -141 -356 -816 84 -815 91 1 226 64 263 124 37 59
-2 63 -68 8 -193 -162 -467 59 -433 350 32 270 274 399 390 209 70 -116 104
-117 104 -4 0 123 -166 185 -340 128z"/>
<path d="M3251 3011 c-144 -53 -286 -204 -237 -253 27 -27 122 18 137 65 75
236 301 203 285 -42 l-6 -91 -160 -85 c-197 -105 -250 -161 -250 -265 0 -164
199 -194 358 -53 37 33 50 37 57 15 38 -106 120 -123 210 -44 62 56 68 114 6
63 -77 -64 -91 -18 -91 306 0 396 -63 474 -309 384z m185 -504 c-12 -137 -75
-207 -186 -207 -156 0 -134 151 36 256 148 91 161 87 150 -49z"/>
<path d="M3906 3002 c-217 -101 -192 -297 52 -407 223 -100 268 -196 140 -303
-112 -95 -256 -43 -293 107 -28 115 -65 99 -65 -28 0 -157 174 -225 366 -144
262 112 228 347 -71 492 -128 63 -146 78 -151 132 -16 165 206 184 288 25 37
-71 68 -56 68 33 0 120 -173 169 -334 93z"/>
<path d="M5015 3013 c-439 -136 -356 -813 100 -813 102 0 249 73 286 142 34
63 9 67 -65 12 -198 -149 -438 -25 -469 244 l-12 101 287 5 288 6 -6 60 c-23
205 -198 309 -409 243z m225 -73 c51 -51 52 -132 1 -159 -75 -41 -361 -27
-361 18 0 137 261 240 360 141z"/>
<path d="M5628 2998 c-21 -23 -63 -55 -93 -71 -67 -34 -71 -62 -10 -71 44 -6
45 -13 51 -283 l5 -276 -61 -23 c-33 -13 -57 -32 -54 -42 10 -29 340 -25 349
4 5 13 -9 24 -29 24 -74 0 -86 39 -86 289 0 304 69 451 160 341 53 -64 151 -8
124 70 -28 82 -132 80 -218 -4 l-66 -64 0 74 c0 84 -17 92 -72 32z"/>
<path d="M20 2002 c0 -9 18 -22 40 -28 37 -9 40 -27 40 -241 0 -321 44 -393
240 -393 192 0 240 81 240 405 0 202 3 220 40 229 22 6 35 19 29 28 -15 25
-184 23 -199 -2 -7 -11 1 -20 18 -20 67 0 106 -368 54 -506 -38 -98 -254 -123
-302 -34 -42 78 -25 522 20 534 83 22 35 46 -90 46 -72 0 -130 -8 -130 -18z"/>
<path d="M1287 1989 c-7 -18 -3 -41 9 -53 31 -31 84 -4 84 43 0 50 -75 57 -93
10z"/>
<path d="M3247 1989 c-7 -18 -3 -41 9 -53 31 -31 84 -4 84 43 0 50 -75 57 -93
10z"/>
<path d="M4464 1394 l6 -626 78 -158 c158 -320 535 -603 717 -538 222 78 475
320 593 567 l72 151 6 615 6 615 -742 0 -742 0 6 -626z m304 462 c-10 -15 20
-24 57 -18 29 4 15 -79 -15 -91 -16 -6 -25 -19 -19 -29 22 -35 -136 -19 -163
17 -29 38 -37 106 -13 103 35 -6 71 3 60 14 -7 7 -2 24 11 37 25 28 100 -3 82
-33z m412 -44 c0 -110 -42 -152 -151 -152 -56 0 -46 237 11 246 141 22 140 23
140 -94z m158 96 c69 -14 102 -248 35 -248 -111 0 -153 42 -153 152 0 116 3
118 118 96z m419 -68 c13 0 23 -16 22 -35 0 -43 -45 -105 -76 -105 -13 0 -24
-16 -25 -35 -3 -33 -3 -33 -12 0 -5 19 -19 35 -30 35 -30 0 -75 63 -75 105 -1
19 11 35 25 35 14 0 38 18 53 39 28 38 29 38 62 0 19 -21 44 -39 56 -39z m139
-665 l-6 -405 -70 -140 c-97 -194 -309 -408 -487 -492 l-134 -62 -93 40 c-234
101 -428 296 -550 554 l-66 140 -7 385 -6 385 713 0 712 0 -6 -405z"/>
<path d="M4594 1527 c-38 -37 -9 -118 67 -190 92 -87 89 -92 -22 -39 l-79 38
0 -45 c0 -51 38 -90 140 -143 90 -46 35 -63 -68 -20 -81 34 -81 34 -48 -38 16
-37 49 -59 110 -75 93 -25 62 -73 -49 -74 -50 -1 -57 -21 -21 -57 30 -30 104
-31 162 -3 41 20 41 19 -3 -20 -26 -22 -69 -41 -95 -41 -59 0 -62 -28 -6 -67
47 -33 119 -17 183 41 19 18 35 26 35 18 0 -8 -23 -36 -52 -62 l-52 -48 57 17
c106 32 128 46 156 100 32 62 13 108 -36 89 -38 -14 -133 74 -133 123 0 16
-10 29 -22 29 -12 0 -17 15 -10 33 7 17 3 44 -9 58 -15 18 -15 29 1 39 12 7
16 31 9 52 -7 24 -1 42 18 50 48 18 18 61 -89 129 -54 35 -106 76 -114 92 -9
15 -22 22 -30 14z"/>
<path d="M5780 1521 c0 -10 -53 -52 -119 -95 -116 -74 -146 -118 -96 -137 28
-10 36 -195 10 -221 -8 -8 -15 -26 -15 -40 0 -44 -102 -132 -141 -122 -111 29
-33 -140 83 -179 83 -28 101 -17 42 25 -24 16 -44 39 -44 51 0 11 24 1 53 -22
66 -52 131 -52 177 -1 35 39 35 40 -24 40 -38 0 -74 17 -97 45 -21 25 -25 34
-9 20 45 -40 155 -31 180 15 19 36 15 40 -35 40 -103 0 -146 52 -58 68 46 9
85 32 106 64 42 64 31 72 -60 46 -118 -32 -130 -10 -22 43 67 34 103 66 115
105 25 76 11 83 -69 35 -100 -61 -114 -50 -31 27 66 60 112 212 64 212 -5 0
-10 -8 -10 -19z"/>
<path d="M5260 1503 c0 -9 -40 -16 -89 -15 -95 2 -119 -12 -140 -83 -12 -41
-7 -45 63 -47 75 -3 75 -3 16 -18 -33 -8 -44 -16 -24 -18 21 -1 31 -11 23 -24
-10 -15 5 -18 47 -9 34 8 80 4 103 -8 41 -23 61 4 21 29 -11 7 -20 38 -20 70
0 32 9 63 20 70 11 7 20 25 20 41 0 16 -9 29 -20 29 -11 0 -20 -8 -20 -17z"/>
<path d="M4894 1413 c-8 -20 -14 -58 -14 -85 0 -26 -10 -48 -22 -48 -12 0 -17
-15 -10 -33 7 -17 3 -44 -10 -59 -17 -21 -15 -30 10 -40 25 -9 27 -19 12 -39
-15 -17 -15 -30 -2 -38 11 -7 15 -25 9 -42 -7 -17 1 -29 19 -29 16 0 34 -19
41 -43 9 -35 17 -39 39 -20 37 30 37 121 2 172 -39 56 -35 71 17 66 67 -7 71
70 7 112 -28 18 -58 62 -68 98 -13 52 -19 57 -30 28z"/>
<path d="M5470 1376 c-7 -30 -36 -68 -63 -86 -58 -38 -59 -122 -2 -117 38 3
50 -62 15 -83 -27 -17 -25 -144 2 -161 25 -15 61 29 46 55 -6 9 9 16 32 16 24
0 37 9 29 21 -7 11 -2 33 10 48 17 20 17 31 1 41 -15 9 -11 22 12 39 32 23 31
25 -1 38 -29 11 -31 19 -11 43 20 24 18 32 -6 41 -18 7 -27 23 -22 37 5 14 1
47 -9 73 l-19 49 -14 -54z"/>
<path d="M5124 1247 c-105 -43 -129 -271 -44 -410 69 -112 74 -149 25 -203
-34 -39 -33 -40 20 -30 38 7 55 2 55 -17 0 -15 9 -27 20 -27 11 0 20 12 20 27
0 19 17 24 54 17 l54 -10 -44 56 -44 56 70 125 c134 240 19 498 -186 416z
m125 -97 c11 -21 38 -53 59 -71 47 -40 30 -99 -27 -99 -33 0 -38 -10 -29 -56
8 -38 1 -65 -20 -83 -49 -40 -99 10 -84 83 9 45 4 56 -26 56 -71 0 -89 52 -33
96 28 22 51 48 51 58 0 65 75 76 109 16z"/>
<path d="M5174 1167 c-7 -7 -8 -34 -1 -60 10 -41 5 -47 -36 -42 -31 3 -47 -5
-47 -25 0 -20 16 -28 47 -25 42 5 46 -2 40 -70 -5 -56 0 -75 23 -75 23 0 28
19 23 75 -6 68 -2 75 40 70 31 -3 47 5 47 25 0 19 -16 28 -46 25 -38 -4 -45 4
-40 48 6 51 -23 82 -50 54z"/>
<path d="M4993 760 c-53 -56 -54 -60 -15 -60 32 0 42 -13 42 -55 0 -50 4 -47
43 31 61 123 17 175 -70 84z"/>
<path d="M5311 784 c-6 -21 4 -68 24 -105 31 -62 35 -65 41 -24 4 28 21 45 43
45 32 0 29 9 -19 60 -66 70 -73 72 -89 24z"/>
<path d="M4740 682 c0 -10 16 -24 35 -31 30 -12 27 -18 -20 -43 -57 -30 -69
-57 -35 -78 11 -7 20 -1 20 14 0 15 26 28 61 30 l61 5 -41 -52 c-23 -29 -40
-67 -39 -85 1 -20 5 -23 11 -7 6 14 23 25 38 25 16 0 34 22 40 48 10 37 24 48
61 44 67 -7 78 -25 40 -62 -35 -35 -41 -85 -17 -143 11 -29 17 -22 25 31 8 55
20 70 58 72 73 6 144 97 82 107 -24 3 -53 -2 -64 -13 -13 -13 -33 -7 -59 19
-21 21 -49 33 -63 26 -13 -7 -1 6 26 29 56 46 14 61 -61 22 -30 -16 -47 -12
-79 20 -42 42 -80 53 -80 22z"/>
<path d="M5585 687 c-14 -6 -25 -23 -25 -39 0 -36 -48 -36 -79 1 -13 16 -38
23 -55 17 -25 -10 -23 -19 17 -51 26 -21 37 -33 24 -27 -35 18 -87 -8 -87 -44
0 -25 -5 -27 -24 -8 -27 27 -116 33 -116 7 0 -33 97 -106 133 -99 30 5 37 -7
37 -57 0 -49 6 -59 25 -43 34 29 31 106 -5 136 -45 38 -36 70 21 73 38 2 57
-10 71 -47 13 -35 29 -46 51 -38 24 10 29 3 21 -28 -6 -22 -2 -35 8 -29 29 18
21 60 -24 117 l-42 54 52 -13 c40 -10 52 -6 52 19 0 18 -16 33 -35 33 -28 1
-26 6 10 23 74 36 47 74 -30 43z"/>
<path d="M5144 471 c-33 -28 -74 -51 -91 -51 -41 0 -34 -110 7 -111 17 0 41
-7 55 -16 18 -11 22 2 15 51 -10 66 -10 66 11 11 28 -70 70 -70 108 0 25 48
30 49 30 14 1 -23 -10 -52 -23 -65 -17 -17 -18 -24 -1 -24 12 0 28 9 34 19 7
11 25 15 40 9 37 -15 63 32 29 54 -20 13 -21 17 -3 18 14 0 25 9 25 20 0 11
-18 20 -41 20 -22 0 -62 23 -88 51 l-47 50 -60 -50z"/>
<path d="M3473 1869 c-48 -58 -52 -71 -25 -81 26 -10 32 -48 32 -211 0 -191 2
-199 49 -220 53 -24 151 19 151 66 0 15 -10 14 -30 -3 -68 -57 -90 -11 -90
189 0 190 0 191 50 191 28 0 50 9 50 20 0 11 -22 20 -50 20 -40 0 -50 10 -50
50 0 66 -18 61 -87 -21z"/>
<path d="M733 1792 c-46 -38 -51 -49 -25 -59 45 -17 48 -333 3 -333 -16 0 -34
-9 -41 -20 -8 -12 31 -20 104 -19 101 0 111 4 81 27 -119 90 -13 434 116 375
65 -29 76 -328 14 -375 -30 -23 -20 -27 81 -27 73 -1 112 7 104 19 -7 11 -25
20 -41 20 -23 0 -29 36 -29 177 0 240 -68 312 -221 232 -53 -27 -59 -27 -59 0
0 42 -20 38 -87 -17z"/>
<path d="M1293 1791 c-46 -37 -51 -48 -25 -58 45 -17 48 -333 3 -333 -16 0
-34 -9 -41 -20 -8 -12 31 -20 104 -19 101 0 111 4 81 27 -29 22 -35 59 -35
228 0 226 -6 239 -87 175z"/>
<path d="M2084 1807 c-212 -105 -134 -467 100 -467 55 0 176 70 176 101 0 12
-7 19 -15 15 -8 -4 -39 -19 -69 -34 -103 -52 -236 45 -236 173 0 43 8 45 157
45 180 0 187 3 159 82 -39 114 -146 147 -272 85z m184 -51 c34 -55 -9 -79
-127 -72 l-105 6 44 56 c51 64 150 69 188 10z"/>
<path d="M2493 1792 c-46 -38 -51 -49 -25 -59 49 -18 46 -308 -3 -345 -30 -23
-21 -27 75 -27 96 0 105 4 75 27 -47 36 -51 314 -5 352 23 19 36 20 59 1 36
-30 71 -11 71 38 0 52 -57 67 -113 31 -42 -28 -47 -28 -47 0 0 41 -20 37 -87
-18z"/>
<path d="M2885 1819 c-124 -49 -92 -192 55 -251 117 -47 132 -154 25 -181 -61
-15 -112 12 -122 65 -12 66 -40 76 -54 21 -38 -152 235 -178 306 -30 39 82 3
149 -109 202 -77 36 -96 56 -96 95 0 78 108 82 154 6 l35 -56 0 63 c1 85 -80
112 -194 66z"/>
<path d="M3253 1792 c-46 -38 -51 -49 -25 -59 45 -17 48 -333 3 -333 -16 0
-34 -9 -41 -20 -8 -12 31 -20 104 -19 101 0 111 4 81 27 -29 22 -35 60 -35
239 0 230 -2 234 -87 165z"/>
<path d="M1485 1792 c19 -15 68 -116 108 -224 95 -262 89 -261 187 -24 48 113
105 222 128 241 41 33 40 34 -57 35 -88 0 -95 -3 -61 -27 36 -27 -19 -251 -70
-283 -32 -20 -108 232 -83 272 22 35 16 38 -82 37 -92 0 -101 -4 -70 -27z"/>
<path d="M3737 1785 c141 -121 211 -526 99 -575 -61 -26 -60 -80 1 -80 42 0
59 32 165 310 76 201 134 322 163 344 44 35 43 35 -65 34 -94 -1 -103 -4 -65
-22 25 -12 45 -28 45 -36 0 -14 -100 -266 -109 -276 -3 -3 -30 59 -59 138 -29
79 -51 145 -48 148 3 2 24 14 46 26 33 19 17 23 -87 23 -124 1 -126 0 -86 -34z"/>
</g>
</svg>
